<?xml version="1.0" encoding="UTF-8"?>
<svg xmlns="http://www.w3.org/2000/svg" viewBox="0 0 560 118">
  <defs>
    <style>
      .cls-1 { fill: #00d4ff; }
      .cls-2 { fill: #f4f1f1; }
    </style>
  </defs>
  <g>
    <g>
      <path class="cls-2" d="M144.63,34.97c5.46,4.43,8.82,10.36,10.08,17.79h-11.39c-0.79-4.66-2.95-8.32-6.47-10.97-3.52-2.65-7.89-3.98-13.11-3.98-3.8,0-7.26,0.87-10.38,2.61-3.13,1.74-5.63,4.41-7.53,8.01-1.9,3.6-2.85,8.05-2.85,13.35s0.95,9.75,2.85,13.35c1.9,3.6,4.41,6.27,7.53,8.01,3.12,1.74,6.58,2.61,10.38,2.61,5.22,0,9.59-1.34,13.11-4.03,3.52-2.69,5.67-6.36,6.47-11.03h11.39c-1.27,7.51-4.63,13.46-10.08,17.85-5.46,4.39-12.34,6.58-20.64,6.58-6.25,0-11.79-1.34-16.61-4.03-4.82-2.69-8.6-6.54-11.33-11.57-2.73-5.02-4.09-10.93-4.09-17.74s1.36-12.73,4.09-17.79c2.73-5.06,6.5-8.94,11.33-11.62,4.82-2.69,10.36-4.03,16.61-4.03,8.31,0,15.19,2.22,20.64,6.64Z"/>
      <path class="cls-2" d="M365.21,34.97c5.46,4.43,8.82,10.36,10.08,17.79h-11.39c-0.79-4.66-2.95-8.32-6.47-10.97-3.52-2.65-7.89-3.98-13.11-3.98-3.8,0-7.26,0.87-10.38,2.61-3.13,1.74-5.63,4.41-7.53,8.01-1.9,3.6-2.85,8.05-2.85,13.35s0.95,9.75,2.85,13.35c1.9,3.6,4.41,6.27,7.53,8.01,3.12,1.74,6.58,2.61,10.38,2.61,5.22,0,9.59-1.34,13.11-4.03,3.52-2.69,5.67-6.36,6.47-11.03h11.39c-1.27,7.51-4.63,13.46-10.08,17.85-5.46,4.39-12.34,6.58-20.64,6.58-6.25,0-11.79-1.34-16.61-4.03-4.82-2.69-8.6-6.54-11.33-11.57-2.73-5.02-4.09-10.93-4.09-17.74s1.36-12.73,4.09-17.79c2.73-5.06,6.5-8.94,11.33-11.62,4.82-2.69,10.36-4.03,16.61-4.03,8.31,0,15.19,2.22,20.64,6.64Z"/>
      <path class="cls-2" d="M227.71,85.26c0.02,0.02,0.03,0.04,0.05,0.07,0.17,0.25,0.17,0.57,0.17,0.86-0.01,2.34-0.02,4.68-0.03,7.02,0,0.31-0.02,0.65-0.25,0.86-0.18,0.16-0.44,0.18-0.68,0.19-3.37,0.17-6.75,0.08-10.11-0.19-3.11-0.25-6.31-0.69-9.01-2.26-3.6-2.09-5.87-5.96-6.93-9.98-1.05-4.02-1.03-8.24-1.01-12.39,0-3.95,0.05-7.91,0.08-11.87s0.05-7.95,0.08-11.93c0.03-3.98,0.05-7.95,0.08-11.93,0.03-3.98,0.05-7.95,0.08-11.93,0.01-0.99,0.01-1.99,0.02-2.98,0-0.5,0-0.99,0.01-1.49,0-0.29-0.01-0.6,0.11-0.87,0.25-0.57,1.06-0.69,1.58-0.86,0.93-0.3,1.86-0.6,2.79-0.89,1.76-0.55,3.52-1.07,5.29-1.56,0.88-0.05,0.93,0.61,0.93,1.15-0.01,4.39-0.03,8.78-0.04,13.17,0,0.58,0.06,1.26,0.57,1.54,0.23,0.13,0.51,0.13,0.78,0.13,4.81-0,9.63-0.01,14.44-0.01,0.29,0,0.61,0.01,0.82,0.21,0.23,0.22,0.25,0.57,0.25,0.89,0,2.31,0.01,4.63,0.02,6.94,0,0.4-0.02,0.85-0.32,1.12-0.26,0.22-0.63,0.24-0.97,0.24-4.81,0-9.62,0-14.44-0.01-0.34,0-0.74,0.02-0.95,0.3-0.15,0.19-0.15,0.45-0.16,0.69-0.05,11.38-0.05,22.76,0,34.14,0.02,3.11,0.17,6.55,2.33,8.77,1.62,1.66,4.05,2.27,6.36,2.39s4.65-0.17,6.96,0.06c0.4,0.04,0.84,0.12,1.09,0.42Z"/>
      <path class="cls-2" d="M300.62,64.04h-52.08c0.24,7.43,2.35,13.01,6.35,16.73,3.99,3.72,8.88,5.58,14.65,5.58,5.22,0,9.59-1.32,13.11-3.98,3.52-2.65,5.67-6.18,6.47-10.61,0,0,0,0,0.01,0h11.5c-0.79,4.51-2.55,8.54-5.28,12.1-2.73,3.56-6.27,6.33-10.62,8.31-4.35,1.98-9.25,2.96-14.71,2.96-6.25,0-11.79-1.34-16.61-4.03-4.82-2.69-8.6-6.54-11.33-11.57-2.73-5.02-4.09-10.93-4.09-17.74s1.36-12.73,4.09-17.79c2.73-5.06,6.5-8.94,11.33-11.62,4.82-2.69,10.36-4.03,16.61-4.03s11.84,1.34,16.55,4.03c4.7,2.69,8.3,6.29,10.8,10.8,2.49,4.51,3.74,9.49,3.74,14.95,0,2.3-0.16,4.27-0.47,5.93ZM287.81,46.72c-1.82-3.24-4.31-5.65-7.47-7.24-3.16-1.58-6.61-2.37-10.32-2.37-5.93,0-10.91,1.84-14.95,5.52-4.03,3.68-6.21,9.07-6.52,16.19h41.64c0.24-4.82-0.55-8.86-2.37-12.1Z"/>
      <path class="cls-2" d="M441.55,35.39c4.66,4.86,7,11.88,7,21.06v37.84h-10.8v-36.89c0-6.48-1.66-11.47-4.98-14.95-3.32-3.48-7.83-5.22-13.52-5.22s-10.68,1.92-14.23,5.75c-3.56,3.84-5.34,9.43-5.34,16.79v34.52h-10.8V7.13c0-0.35,0.28-0.63,0.63-0.63h10.17v38.08c1.66-5.3,4.61-9.37,8.84-12.22,4.23-2.85,9.11-4.27,14.65-4.27,7.59,0,13.72,2.43,18.39,7.29Z"/>
    </g>
    <polygon class="cls-2" points="179.59,94.2 168.71,94.2 169.46,40.05 179.59,36.92"/>
    <g>
      <path class="cls-1" d="M516.62,77.04h-34.47l-6.25,17.7h-14.11l30.08-80.4h15.16l29.96,80.4h-14.11l-6.25-17.7ZM512.92,66.86l-13.54-38.18-13.54,38.18h27.07Z"/>
      <path class="cls-1" d="M560,13.07v81.67h-13.19V13.07h13.19Z"/>
    </g>
    <path class="cls-1" d="M60.38,83.55c-7.62-0.01-10.47-0.47-16.03-6.1-2.89-2.97-6.31-5.74-8.07-9.57-1.22-2.7-1.15-5.81-1.12-8.74,0.08-3.86-0.12-7.83,1.85-11.1,1.41-2.39,3.48-4.3,5.44-6.23,2.8-2.66,5.69-5.61,9.58-6.49,4.3-0.93,9.1,0.28,13.4-1.2,14.28-4.02,16.96-23.87,4.22-31.45-3.68-2.26-8.28-3.18-12.49-2.37-7.55,1.27-13.57,7.83-14.29,15.45-0.43,3.45-0.12,7.07-1.6,10.24-1.34,2.98-3.95,5.41-6.32,7.73-2.84,2.73-5.83,5.72-9.75,6.56-2.01,0.47-4.17,0.41-6.31,0.43-3.99-0.02-7.94,0.8-11.25,3.1-11.19,7.27-9.8,24.87,2.41,30.23,1.26,0.58,2.58,1.01,3.92,1.29,4,0.9,8.35,0.02,12.2,1.5,4.38,1.74,7.52,5.7,10.88,8.93,4.8,4.77,5.71,7.9,5.67,14.55-0.08,9.53,6.92,17.59,16.56,18.15,8.38,0.61,16.36-5.21,18.15-13.38,2.73-10.9-5.94-21.48-16.99-21.53h-0.05Z"/>
    <circle class="cls-1" cx="173.98" cy="19" r="7.33"/>
  </g>
</svg>