<?xml version="1.0" encoding="UTF-8"?><svg id="Erste_Version_mit_Cyan" xmlns="http://www.w3.org/2000/svg" viewBox="0 0 3000 3000"><path d="M909.14,1394.01c23.82,19.34,38.49,45.23,44.01,77.67h-49.71c-3.45-20.36-12.86-36.33-28.22-47.9-15.36-11.56-34.43-17.35-57.22-17.35-16.57,0-31.67,3.8-45.31,11.39-13.64,7.6-24.59,19.25-32.88,34.95-8.28,15.71-12.43,35.13-12.43,58.25s4.14,42.55,12.43,58.25c8.28,15.71,19.24,27.36,32.88,34.95,13.63,7.6,28.74,11.39,45.31,11.39,22.78,0,41.85-5.87,57.22-17.6,15.36-11.73,24.76-27.78,28.22-48.15h49.71c-5.53,32.8-20.19,58.77-44.01,77.93-23.82,19.16-53.85,28.74-90.1,28.74-27.27,0-51.44-5.87-72.49-17.6-21.06-11.73-37.54-28.56-49.45-50.48-11.91-21.92-17.86-47.72-17.86-77.41s5.95-55.57,17.86-77.67c11.91-22.09,28.39-39,49.45-50.74,21.05-11.73,45.22-17.6,72.49-17.6,36.25,0,66.28,9.67,90.1,29Z" fill="#f4f1f1"/><path d="M1871.91,1394.01c23.82,19.34,38.49,45.23,44.01,77.67h-49.71c-3.45-20.36-12.86-36.33-28.22-47.9-15.36-11.56-34.43-17.35-57.22-17.35-16.57,0-31.67,3.8-45.31,11.39-13.64,7.6-24.59,19.25-32.88,34.95-8.28,15.71-12.43,35.13-12.43,58.25s4.14,42.55,12.43,58.25c8.28,15.71,19.24,27.36,32.88,34.95,13.63,7.6,28.74,11.39,45.31,11.39,22.78,0,41.85-5.87,57.22-17.6,15.36-11.73,24.76-27.78,28.22-48.15h49.71c-5.53,32.8-20.19,58.77-44.01,77.93-23.82,19.16-53.85,28.74-90.1,28.74-27.27,0-51.44-5.87-72.49-17.6-21.06-11.73-37.54-28.56-49.45-50.48-11.91-21.92-17.86-47.72-17.86-77.41s5.95-55.57,17.86-77.67c11.91-22.09,28.39-39,49.45-50.74,21.05-11.73,45.22-17.6,72.49-17.6,36.25,0,66.28,9.67,90.1,29Z" fill="#f4f1f1"/><path d="M1271.45,1613.6c.08.09.15.19.22.29.72,1.08.74,2.47.73,3.77-.04,10.21-.09,20.43-.13,30.64,0,1.34-.09,2.85-1.1,3.74-.79.69-1.92.78-2.96.83-14.7.74-29.45.35-44.12-.84-13.59-1.1-27.55-3.01-39.34-9.85-15.7-9.11-25.62-26.02-30.23-43.57-4.6-17.55-4.51-35.95-4.4-54.09,0-17.26.22-34.53.33-51.79s.22-34.7.34-52.05c.11-17.35.22-34.7.34-52.05.11-17.35.22-34.7.34-52.05.03-4.34.06-8.68.08-13.01.01-2.17.02-4.34.04-6.51.01-1.25-.03-2.64.49-3.81,1.11-2.48,4.63-3.02,6.91-3.77,4.05-1.32,8.11-2.62,12.18-3.88,7.67-2.38,15.37-4.66,23.11-6.83,3.82-.21,4.07,2.66,4.06,5-.06,19.16-.11,38.33-.17,57.49,0,2.51.26,5.51,2.47,6.71,1.02.56,2.24.57,3.41.57,21.01-.02,42.02-.04,63.04-.06,1.27,0,2.67.05,3.59.91,1.01.94,1.09,2.5,1.09,3.88.02,10.09.05,20.19.07,30.28,0,1.75-.09,3.73-1.4,4.88-1.12.98-2.75,1.03-4.23,1.03-21.01-.01-42.01-.02-63.02-.03-1.5,0-3.22.1-4.13,1.3-.64.84-.67,1.98-.68,3.03-.23,49.67-.23,99.34.02,149,.07,13.56.72,28.58,10.17,38.3,7.06,7.26,17.66,9.9,27.78,10.43s20.29-.72,30.37.26c1.73.17,3.65.52,4.74,1.83Z" fill="#f4f1f1"/><path d="M1590.01,1520.87h-227.31c1.04,32.45,10.27,56.79,27.7,73.01,17.43,16.23,38.75,24.34,63.95,24.34,22.78,0,41.85-5.78,57.21-17.35,15.35-11.56,24.76-26.99,28.22-46.32,0-.01.01-.02.03-.02h50.2c-3.45,19.68-11.13,37.28-23.04,52.81-11.91,15.53-27.36,27.62-46.34,36.25-18.99,8.63-40.39,12.94-64.21,12.94-27.27,0-51.44-5.87-72.49-17.6-21.06-11.73-37.54-28.56-49.45-50.48-11.91-21.92-17.86-47.72-17.86-77.41s5.95-55.57,17.86-77.67c11.91-22.09,28.39-39,49.45-50.74,21.05-11.73,45.22-17.6,72.49-17.6s51.69,5.87,72.23,17.6c20.53,11.74,36.24,27.44,47.12,47.12,10.87,19.68,16.31,41.42,16.31,65.24,0,10.02-.69,18.64-2.07,25.89ZM1534.09,1445.27c-7.95-14.15-18.82-24.68-32.62-31.58-13.81-6.9-28.83-10.36-45.05-10.36-25.89,0-47.64,8.03-65.24,24.08-17.6,16.05-27.1,39.61-28.48,70.68h181.74c1.04-21.05-2.42-38.66-10.36-52.81Z" fill="#f4f1f1"/><path d="M2205.13,1395.82c20.36,21.23,30.55,51.87,30.55,91.91v165.17h-47.12v-161.03c0-28.3-7.25-50.05-21.75-65.24-14.5-15.19-34.17-22.78-59.03-22.78s-46.6,8.37-62.13,25.11c-15.53,16.75-23.3,41.16-23.3,73.27v150.68h-47.12v-380.43c0-1.51,1.22-2.73,2.73-2.73h44.38v166.21c7.25-23.12,20.1-40.91,38.58-53.33,18.46-12.43,39.78-18.64,63.95-18.64,33.14,0,59.89,10.61,80.26,31.84Z" fill="#f4f1f1"/><polygon points="1061.71 1652.54 1014.27 1652.54 1017.54 1416.17 1061.71 1402.52 1061.71 1652.54" fill="#f4f1f1"/><path d="M2532.79,1577.63h-150.47l-27.27,77.26h-61.6l131.29-350.94h66.15l130.78,350.94h-61.6l-27.27-77.26ZM2516.63,1533.2l-59.08-166.63-59.08,166.63h118.16Z" fill="#00d4ff"/><path d="M2722.14,1298.4v356.49h-57.56v-356.49h57.56Z" fill="#00d4ff"/><path d="M541.41,1606.05c-33.25-.06-45.7-2.07-69.98-26.61-12.63-12.97-27.52-25.05-35.21-41.79-5.34-11.79-5.03-25.35-4.87-38.13.33-16.86-.52-34.17,8.09-48.47,6.16-10.42,15.17-18.75,23.76-27.21,12.23-11.63,24.82-24.5,41.82-28.34,18.75-4.08,39.73,1.23,58.49-5.24,62.32-17.54,74.01-104.18,18.4-137.29-16.05-9.87-36.16-13.86-54.53-10.34-32.95,5.53-59.25,34.17-62.39,67.45-1.88,15.04-.54,30.87-7,44.69-5.83,13.02-17.26,23.61-27.6,33.74-12.4,11.92-25.46,24.97-42.55,28.64-8.79,2.05-18.2,1.77-27.55,1.89-17.4-.1-34.64,3.51-49.11,13.51-48.86,31.74-42.78,108.53,10.5,131.95,5.5,2.55,11.27,4.43,17.09,5.65,17.44,3.95,36.46.1,53.27,6.55,19.11,7.59,32.84,24.9,47.51,38.97,20.95,20.81,24.91,34.46,24.73,63.51-.37,41.61,30.22,76.76,72.27,79.24,36.59,2.66,71.39-22.74,79.22-58.4,11.93-47.57-25.92-93.77-74.15-93.98h-.2Z" fill="#00d4ff"/><circle cx="1037.24" cy="1324.3" r="32" fill="#00d4ff"/></svg>